HIERARCHY
ROOT Hips
{
	OFFSET 0.000000 0.000000 0.000000
	CHANNELS 6 Xposition Yposition Zposition Zrotation Yrotation Xrotation 
	JOINT LeftUpLeg_virtual
	{
		OFFSET 0.000000 0.000000 0.000000
		CHANNELS 3 Zrotation Yrotation Xrotation
		JOINT LeftUpLeg
		{
			OFFSET 10.205400 -3.823500 0.155100
			CHANNELS 3 Zrotation Yrotation Xrotation
			JOINT LeftLeg
			{
				OFFSET 0.708757 -12.982077 0.567790
				CHANNELS 3 Zrotation Yrotation Xrotation
				JOINT LeftFoot
				{
					OFFSET -0.708756 -10.717838 -2.184338
					CHANNELS 3 Zrotation Yrotation Xrotation
					JOINT LeftToeBase
					{
						OFFSET 0.108149 -7.191104 7.560241
						CHANNELS 3 Zrotation Yrotation Xrotation
						End Site
						{
							OFFSET 0.000000 0.000000 0.000000
						}
					}
				}
			}
		}
	}
	JOINT RightUpLeg_virtual
	{
		OFFSET 0.000000 0.000000 0.000000
		CHANNELS 3 Zrotation Yrotation Xrotation
		JOINT RightUpLeg
		{
			OFFSET -10.205400 -3.823500 0.005500
			CHANNELS 3 Zrotation Yrotation Xrotation
			JOINT RightLeg
			{
				OFFSET -0.708756 -12.982134 0.610632
				CHANNELS 3 Zrotation Yrotation Xrotation
				JOINT RightFoot
				{
					OFFSET 0.708754 -10.717769 -1.945823
					CHANNELS 3 Zrotation Yrotation Xrotation
					JOINT RightToeBase
					{
						OFFSET -0.108140 -7.191069 7.372968
						CHANNELS 3 Zrotation Yrotation Xrotation
						End Site
						{
							OFFSET 0.000000 0.000000 0.000000
						}
					}
				}
			}
		}
	}
	JOINT Spine_virtual
	{
		OFFSET 0.000000 0.000000 0.000000
		CHANNELS 3 Zrotation Yrotation Xrotation
		JOINT Spine
		{
			OFFSET 0.000000 6.876099 0.125700
			CHANNELS 3 Zrotation Yrotation Xrotation
			JOINT Spine1
			{
				OFFSET 0.000000 8.022060 0.146608
				CHANNELS 3 Zrotation Yrotation Xrotation
				JOINT Spine2
				{
					OFFSET 0.000000 9.168068 0.167552
					CHANNELS 3 Zrotation Yrotation Xrotation
					JOINT Neck_virtual
					{
						OFFSET 0.000000 0.000000 0.000000
						CHANNELS 3 Zrotation Yrotation Xrotation
						JOINT Neck
						{
							OFFSET 0.000000 10.314075 0.188496
							CHANNELS 3 Zrotation Yrotation Xrotation
							JOINT Head
							{
								OFFSET 0.000000 7.643700 -2.377400
								CHANNELS 3 Zrotation Yrotation Xrotation
								End Site
								{
									OFFSET 0.000000 0.000000 0.000000
								}
							}
						}
					}
					JOINT LeftShoulder_virtual
					{
						OFFSET 0.000000 0.000000 0.000000
						CHANNELS 3 Zrotation Yrotation Xrotation
						JOINT LeftShoulder
						{
							OFFSET 4.392200 8.824978 0.174984
							CHANNELS 3 Zrotation Yrotation Xrotation
							JOINT LeftArm
							{
								OFFSET 8.771219 -2.981674 -0.026999
								CHANNELS 3 Zrotation Yrotation Xrotation
								JOINT LeftForeArm
								{
									OFFSET 8.512804 0.000000 -0.000000
									CHANNELS 3 Zrotation Yrotation Xrotation
									JOINT LeftHand
									{
										OFFSET 18.484802 0.000000 -0.000000
										CHANNELS 3 Zrotation Yrotation Xrotation
										End Site
										{
											OFFSET 0.000000 0.000000 0.000000
										}
									}
								}
							}
						}
					}
					JOINT RightShoulder_virtual
					{
						OFFSET 0.000000 0.000000 0.000000
						CHANNELS 3 Zrotation Yrotation Xrotation
						JOINT RightShoulder
						{
							OFFSET -4.392200 8.824993 0.141379
							CHANNELS 3 Zrotation Yrotation Xrotation
							JOINT RightArm
							{
								OFFSET -8.771282 -2.981682 -0.094208
								CHANNELS 3 Zrotation Yrotation Xrotation
								JOINT RightForeArm
								{
									OFFSET -8.494598 0.000000 0.000000
									CHANNELS 3 Zrotation Yrotation Xrotation
									JOINT RightHand
									{
										OFFSET -18.483803 0.000000 0.000001
										CHANNELS 3 Zrotation Yrotation Xrotation
										End Site
										{
											OFFSET 0.000000 0.000000 0.000000
										}
									}
								}
							}
						}
					}
				}
			}
		}
	}
}
MOTION
Frames: 10
Frame Time: 0.033333
33.102737 36.574539 -7.231264 -179.932318 1.324652 -179.911281 -3.167801 -0.375325 8.867919 1.178586 -9.065653 -17.204526 11.613055 11.534632 13.093859 -9.604775 4.343887 14.847142 0.000000 0.000000 0.000000 2.176291 1.766591 8.061846 4.559535 -2.268200 -0.941655 -9.863990 -2.990125 6.858088 5.865821 10.423645 4.404854 0.000000 0.000000 0.000000 1.338060 2.411120 -0.519705 -3.411869 1.258545 -6.107427 0.394796 -4.746237 3.839545 0.009712 0.003218 0.017604 0.086169 -3.013331 5.811152 -0.242017 0.882546 -1.394256 0.000000 0.000000 0.000000 1.403510 -2.048312 2.939353 6.374442 -2.034632 -5.714573 -15.635263 28.482454 -27.795760 -7.915114 -30.681620 -3.874327 0.000000 0.000000 0.000000 -2.140577 -1.331389 2.561312 7.260988 -3.469353 -12.486713 38.033758 -35.561264 -34.947284 -2.354029 29.883894 -7.260454 0.000000 0.000000 0.000000 
33.107742 36.573208 -7.231146 179.998584 1.342713 -179.923234 -3.212099 -0.353271 8.869931 1.140391 -8.965482 -17.216417 11.524061 11.795027 13.050683 -9.585815 4.341819 14.828978 0.000000 0.000000 0.000000 2.193072 1.872559 8.146621 4.434608 -2.006718 -0.846476 -10.121516 -2.748399 6.922012 5.772694 10.321194 3.836540 0.000000 0.000000 0.000000 1.310167 2.413562 -0.514482 -3.442263 1.255327 -6.098404 0.366811 -4.744582 3.837803 -0.030983 0.000519 0.014644 0.140614 -3.150433 5.800238 -0.186795 0.945390 -1.379463 0.000000 0.000000 0.000000 1.461816 -2.057789 2.946309 6.371720 -2.044758 -5.745499 -15.669936 28.486793 -27.789070 -7.969355 -30.669373 -3.827406 0.000000 0.000000 0.000000 -2.096449 -1.342305 2.565065 7.286324 -3.447253 -12.435861 38.000089 -35.543348 -34.795183 -2.388174 29.854962 -7.276306 0.000000 0.000000 0.000000 
33.118740 36.572472 -7.230498 -179.973695 1.329421 -179.935473 -3.188328 -0.370193 8.863076 1.159526 -8.994451 -17.245632 11.521505 11.790261 13.091756 -9.615194 4.326444 14.810483 0.000000 0.000000 0.000000 2.229238 1.854005 8.160711 4.461619 -2.001101 -0.842888 -10.101620 -2.744755 6.896418 5.750077 10.334233 3.841342 0.000000 0.000000 0.000000 1.335705 2.431581 -0.498540 -3.432842 1.268549 -6.089343 0.378346 -4.736873 3.844874 -0.037517 0.010007 0.013247 0.129796 -3.129466 5.808391 -0.244297 0.891470 -1.373368 0.000000 0.000000 0.000000 1.458296 -2.093774 2.953757 6.346232 -2.085581 -5.749879 -15.617514 28.507499 -27.686954 -7.924106 -30.650737 -3.878046 0.000000 0.000000 0.000000 -2.111217 -1.383357 2.578659 7.289982 -3.473871 -12.530316 37.964387 -35.515945 -34.613514 -2.419443 29.858896 -7.319317 0.000000 0.000000 0.000000 
33.135571 36.573959 -7.227329 179.961729 1.298989 -179.918903 -3.251847 -0.412715 8.880075 1.192565 -8.982871 -17.245353 11.517008 11.636069 13.052734 -9.577236 4.380078 14.837230 0.000000 0.000000 0.000000 2.156058 1.812135 8.153930 4.502919 -1.999352 -0.849440 -10.105274 -2.807532 6.890655 5.719723 10.342886 3.890767 0.000000 0.000000 0.000000 1.295985 2.387763 -0.518994 -3.465831 1.244004 -6.086231 0.359714 -4.747424 3.838895 -0.010713 -0.014563 0.001228 0.112571 -3.070678 5.825806 -0.242448 0.899396 -1.368034 0.000000 0.000000 0.000000 1.428096 -2.041821 2.946415 6.344914 -2.059593 -5.738906 -15.697622 28.527865 -27.767352 -7.939268 -30.651543 -3.841459 0.000000 0.000000 0.000000 -2.112121 -1.321689 2.587916 7.324823 -3.417668 -12.456826 38.010115 -35.486883 -34.627734 -2.374344 29.843610 -7.289764 0.000000 0.000000 0.000000 
33.157627 36.574245 -7.222826 179.968217 1.331137 -179.946716 -3.268731 -0.398157 8.878934 1.246528 -9.028445 -17.263838 11.497736 11.525690 13.039949 -9.591407 4.390563 14.820126 0.000000 0.000000 0.000000 2.159225 1.827717 8.156804 4.556366 -1.996695 -0.841930 -10.095864 -2.836700 6.876675 5.694736 10.372955 3.919973 0.000000 0.000000 0.000000 1.297728 2.389158 -0.512047 -3.473900 1.232609 -6.072032 0.348958 -4.759330 3.852637 -0.019563 -0.027714 0.000605 0.120447 -3.044295 5.825851 -0.237220 0.911708 -1.346468 0.000000 0.000000 0.000000 1.434282 -2.018658 2.926304 6.319956 -2.049184 -5.717506 -15.694047 28.538335 -27.750493 -7.929981 -30.634163 -3.845393 0.000000 0.000000 0.000000 -2.106973 -1.286170 2.610207 7.355331 -3.379556 -12.467072 38.006243 -35.468448 -34.546520 -2.352375 29.826357 -7.274577 0.000000 0.000000 0.000000 
33.184566 36.574471 -7.216944 179.971277 1.392301 -179.945336 -3.269244 -0.337308 8.894966 1.301340 -9.052535 -17.260091 11.492676 11.456805 13.011817 -9.610515 4.411847 14.837273 0.000000 0.000000 0.000000 2.156835 1.870243 8.150451 4.620031 -2.008705 -0.837774 -10.087389 -2.881707 6.885246 5.676506 10.407424 3.935859 0.000000 0.000000 0.000000 1.286672 2.453016 -0.517037 -3.483166 1.306486 -6.056841 0.356667 -4.687493 3.874114 -0.007369 0.044710 0.009594 0.110767 -3.168231 5.828868 -0.289071 0.861677 -1.316002 0.000000 0.000000 0.000000 1.444255 -2.107912 2.991332 6.316386 -2.161972 -5.783028 -15.696126 28.507526 -27.834112 -7.923797 -30.587844 -3.826831 0.000000 0.000000 0.000000 -2.109779 -1.381548 2.549943 7.379210 -3.468020 -12.381962 38.001629 -35.508026 -34.476380 -2.338395 29.837675 -7.256262 0.000000 0.000000 0.000000 
33.214989 36.572834 -7.212018 179.998612 1.399493 -179.810290 -3.215519 -0.357555 8.826075 1.379672 -9.043232 -17.326773 11.520244 11.493885 13.024110 -9.679628 4.439903 14.857791 0.000000 0.000000 0.000000 2.169004 1.926396 8.107404 4.704432 -2.101519 -0.863055 -10.054174 -2.877469 6.734396 5.681404 10.357920 4.046121 0.000000 0.000000 0.000000 1.279607 2.425591 -0.614110 -3.464213 1.263025 -6.105200 0.415239 -4.731179 3.850134 -0.046065 0.004877 -0.014146 0.085372 -3.064761 5.918007 -0.281029 0.871092 -1.323096 0.000000 0.000000 0.000000 1.423606 -2.035916 3.034308 6.326714 -2.119253 -5.722965 -15.660814 28.501879 -27.891393 -7.931106 -30.563351 -3.829488 0.000000 0.000000 0.000000 -2.132416 -1.319593 2.688468 7.392496 -3.404169 -12.506560 37.916614 -35.521994 -34.381513 -2.320270 29.854771 -7.284236 0.000000 0.000000 0.000000 
33.248409 36.573612 -7.209394 -179.992205 1.389764 -179.947508 -3.217074 -0.351843 8.874846 1.455755 -9.085656 -17.292432 11.514713 11.350517 13.012701 -9.681377 4.449642 14.832461 0.000000 0.000000 0.000000 2.183349 1.876295 8.138998 4.741303 -2.091829 -0.852565 -10.072699 -2.927706 6.819976 5.603722 10.395700 3.951128 0.000000 0.000000 0.000000 1.293641 2.422762 -0.542393 -3.468729 1.253212 -6.053798 0.372101 -4.736291 3.881559 -0.006223 -0.004806 0.004626 0.121157 -3.048800 5.859247 -0.261692 0.895273 -1.302388 0.000000 0.000000 0.000000 1.436897 -2.043329 2.957598 6.232290 -2.150133 -5.680323 -15.540031 28.492716 -27.742470 -7.891700 -30.496959 -3.900111 0.000000 0.000000 0.000000 -2.107024 -1.310630 2.617158 7.372590 -3.406869 -12.442745 37.992948 -35.504546 -34.462157 -2.340313 29.854883 -7.302865 0.000000 0.000000 0.000000 
33.280331 36.572117 -7.207945 -179.966346 1.395656 -179.940760 -3.193348 -0.337060 8.881227 1.519539 -9.088254 -17.296428 11.499292 11.277912 13.056875 -9.710167 4.457453 14.834951 0.000000 0.000000 0.000000 2.203727 1.878148 8.139577 4.804631 -2.124564 -0.852317 -10.050010 -2.969012 6.800564 5.557624 10.412854 3.960471 0.000000 0.000000 0.000000 1.300432 2.426619 -0.555037 -3.457788 1.254711 -6.056529 0.384103 -4.733552 3.886650 0.006526 -0.005140 0.003771 0.099277 -3.009402 5.864607 -0.274504 0.859277 -1.300460 0.000000 0.000000 0.000000 1.418279 -2.038034 2.965718 6.204143 -2.169004 -5.675947 -15.515997 28.457025 -27.756461 -7.895220 -30.463235 -3.895392 0.000000 0.000000 0.000000 -2.138861 -1.307834 2.610236 7.384057 -3.406418 -12.457769 37.861385 -35.586365 -34.515866 -2.252209 29.843948 -7.267719 0.000000 0.000000 0.000000 
33.309235 36.572041 -7.208798 179.971509 1.404236 -179.946975 -3.264862 -0.354196 8.888535 1.597177 -9.129263 -17.307672 11.493746 11.196242 13.078358 -9.708684 4.467642 14.810855 0.000000 0.000000 0.000000 2.144300 1.841826 8.147535 4.868987 -2.116389 -0.840867 -10.021665 -3.044103 6.841108 5.520482 10.487342 4.002288 0.000000 0.000000 0.000000 1.254339 2.471120 -0.560455 -3.477171 1.319912 -6.030174 0.364974 -4.826815 3.892846 -0.016689 0.060479 0.012263 0.127084 -3.134535 5.847115 -0.286197 0.839535 -1.294086 0.000000 0.000000 0.000000 1.470212 -2.059609 2.976572 6.217545 -2.207746 -5.761415 -15.603159 28.406303 -27.859773 -7.911272 -30.467281 -3.843123 0.000000 0.000000 0.000000 -2.084740 -1.370005 2.612323 7.383049 -3.442095 -12.533470 37.846403 -35.622374 -34.446604 -2.275930 29.848815 -7.218355 0.000000 0.000000 0.000000 
